<?xml version="1.0" standalone="no"?>
<svg xmlns="http://www.w3.org/2000/svg" width="300" height="300"><defs><clipPath id="clip-path-dot-color"><circle cx="10" cy="110" r="5" transform="rotate(0,10,110)"/><circle cx="10" cy="120" r="5" transform="rotate(0,10,120)"/><circle cx="10" cy="130" r="5" transform="rotate(0,10,130)"/><circle cx="10" cy="140" r="5" transform="rotate(0,10,140)"/><circle cx="10" cy="170" r="5" transform="rotate(0,10,170)"/><circle cx="20" cy="90" r="5" transform="rotate(0,20,90)"/><circle cx="20" cy="130" r="5" transform="rotate(0,20,130)"/><circle cx="20" cy="140" r="5" transform="rotate(0,20,140)"/><circle cx="20" cy="170" r="5" transform="rotate(0,20,170)"/><circle cx="20" cy="190" r="5" transform="rotate(0,20,190)"/><circle cx="30" cy="90" r="5" transform="rotate(0,30,90)"/><circle cx="30" cy="100" r="5" transform="rotate(0,30,100)"/><circle cx="30" cy="110" r="5" transform="rotate(0,30,110)"/><circle cx="30" cy="170" r="5" transform="rotate(0,30,170)"/><circle cx="30" cy="190" r="5" transform="rotate(0,30,190)"/><circle cx="30" cy="200" r="5" transform="rotate(0,30,200)"/><circle cx="40" cy="110" r="5" transform="rotate(0,40,110)"/><circle cx="40" cy="150" r="5" transform="rotate(0,40,150)"/><circle cx="40" cy="170" r="5" transform="rotate(0,40,170)"/><circle cx="40" cy="180" r="5" transform="rotate(0,40,180)"/><circle cx="40" cy="190" r="5" transform="rotate(0,40,190)"/><circle cx="40" cy="210" r="5" transform="rotate(0,40,210)"/><circle cx="50" cy="100" r="5" transform="rotate(0,50,100)"/><circle cx="50" cy="120" r="5" transform="rotate(0,50,120)"/><circle cx="50" cy="150" r="5" transform="rotate(0,50,150)"/><circle cx="50" cy="170" r="5" transform="rotate(0,50,170)"/><circle cx="50" cy="200" r="5" transform="rotate(0,50,200)"/><circle cx="60" cy="100" r="5" transform="rotate(0,60,100)"/><circle cx="60" cy="140" r="5" transform="rotate(0,60,140)"/><circle cx="60" cy="150" r="5" transform="rotate(0,60,150)"/><circle cx="60" cy="170" r="5" transform="rotate(0,60,170)"/><circle cx="60" cy="180" r="5" transform="rotate(0,60,180)"/><circle cx="60" cy="190" r="5" transform="rotate(0,60,190)"/><circle cx="60" cy="200" r="5" transform="rotate(0,60,200)"/><circle cx="60" cy="210" r="5" transform="rotate(0,60,210)"/><circle cx="70" cy="90" r="5" transform="rotate(0,70,90)"/><circle cx="70" cy="110" r="5" transform="rotate(0,70,110)"/><circle cx="70" cy="130" r="5" transform="rotate(0,70,130)"/><circle cx="70" cy="150" r="5" transform="rotate(0,70,150)"/><circle cx="70" cy="170" r="5" transform="rotate(0,70,170)"/><circle cx="70" cy="190" r="5" transform="rotate(0,70,190)"/><circle cx="70" cy="210" r="5" transform="rotate(0,70,210)"/><circle cx="80" cy="100" r="5" transform="rotate(0,80,100)"/><circle cx="80" cy="130" r="5" transform="rotate(0,80,130)"/><circle cx="80" cy="170" r="5" transform="rotate(0,80,170)"/><circle cx="80" cy="200" r="5" transform="rotate(0,80,200)"/><circle cx="90" cy="20" r="5" transform="rotate(0,90,20)"/><circle cx="90" cy="30" r="5" transform="rotate(0,90,30)"/><circle cx="90" cy="40" r="5" transform="rotate(0,90,40)"/><circle cx="90" cy="60" r="5" transform="rotate(0,90,60)"/><circle cx="90" cy="70" r="5" transform="rotate(0,90,70)"/><circle cx="90" cy="100" r="5" transform="rotate(0,90,100)"/><circle cx="90" cy="130" r="5" transform="rotate(0,90,130)"/><circle cx="90" cy="140" r="5" transform="rotate(0,90,140)"/><circle cx="90" cy="190" r="5" transform="rotate(0,90,190)"/><circle cx="90" cy="200" r="5" transform="rotate(0,90,200)"/><circle cx="90" cy="270" r="5" transform="rotate(0,90,270)"/><circle cx="90" cy="280" r="5" transform="rotate(0,90,280)"/><circle cx="100" cy="10" r="5" transform="rotate(0,100,10)"/><circle cx="100" cy="30" r="5" transform="rotate(0,100,30)"/><circle cx="100" cy="50" r="5" transform="rotate(0,100,50)"/><circle cx="100" cy="60" r="5" transform="rotate(0,100,60)"/><circle cx="100" cy="100" r="5" transform="rotate(0,100,100)"/><circle cx="100" cy="110" r="5" transform="rotate(0,100,110)"/><circle cx="100" cy="130" r="5" transform="rotate(0,100,130)"/><circle cx="100" cy="140" r="5" transform="rotate(0,100,140)"/><circle cx="100" cy="180" r="5" transform="rotate(0,100,180)"/><circle cx="100" cy="190" r="5" transform="rotate(0,100,190)"/><circle cx="100" cy="210" r="5" transform="rotate(0,100,210)"/><circle cx="100" cy="220" r="5" transform="rotate(0,100,220)"/><circle cx="100" cy="230" r="5" transform="rotate(0,100,230)"/><circle cx="100" cy="240" r="5" transform="rotate(0,100,240)"/><circle cx="100" cy="250" r="5" transform="rotate(0,100,250)"/><circle cx="100" cy="260" r="5" transform="rotate(0,100,260)"/><circle cx="100" cy="270" r="5" transform="rotate(0,100,270)"/><circle cx="100" cy="290" r="5" transform="rotate(0,100,290)"/><circle cx="110" cy="10" r="5" transform="rotate(0,110,10)"/><circle cx="110" cy="30" r="5" transform="rotate(0,110,30)"/><circle cx="110" cy="60" r="5" transform="rotate(0,110,60)"/><circle cx="110" cy="70" r="5" transform="rotate(0,110,70)"/><circle cx="110" cy="90" r="5" transform="rotate(0,110,90)"/><circle cx="110" cy="130" r="5" transform="rotate(0,110,130)"/><circle cx="110" cy="140" r="5" transform="rotate(0,110,140)"/><circle cx="110" cy="190" r="5" transform="rotate(0,110,190)"/><circle cx="110" cy="200" r="5" transform="rotate(0,110,200)"/><circle cx="110" cy="210" r="5" transform="rotate(0,110,210)"/><circle cx="110" cy="230" r="5" transform="rotate(0,110,230)"/><circle cx="110" cy="250" r="5" transform="rotate(0,110,250)"/><circle cx="110" cy="280" r="5" transform="rotate(0,110,280)"/><circle cx="120" cy="20" r="5" transform="rotate(0,120,20)"/><circle cx="120" cy="30" r="5" transform="rotate(0,120,30)"/><circle cx="120" cy="50" r="5" transform="rotate(0,120,50)"/><circle cx="120" cy="90" r="5" transform="rotate(0,120,90)"/><circle cx="120" cy="100" r="5" transform="rotate(0,120,100)"/><circle cx="120" cy="110" r="5" transform="rotate(0,120,110)"/><circle cx="120" cy="120" r="5" transform="rotate(0,120,120)"/><circle cx="120" cy="130" r="5" transform="rotate(0,120,130)"/><circle cx="120" cy="140" r="5" transform="rotate(0,120,140)"/><circle cx="120" cy="150" r="5" transform="rotate(0,120,150)"/><circle cx="120" cy="160" r="5" transform="rotate(0,120,160)"/><circle cx="120" cy="170" r="5" transform="rotate(0,120,170)"/><circle cx="120" cy="210" r="5" transform="rotate(0,120,210)"/><circle cx="120" cy="240" r="5" transform="rotate(0,120,240)"/><circle cx="120" cy="250" r="5" transform="rotate(0,120,250)"/><circle cx="120" cy="290" r="5" transform="rotate(0,120,290)"/><circle cx="130" cy="20" r="5" transform="rotate(0,130,20)"/><circle cx="130" cy="30" r="5" transform="rotate(0,130,30)"/><circle cx="130" cy="40" r="5" transform="rotate(0,130,40)"/><circle cx="130" cy="50" r="5" transform="rotate(0,130,50)"/><circle cx="130" cy="70" r="5" transform="rotate(0,130,70)"/><circle cx="130" cy="80" r="5" transform="rotate(0,130,80)"/><circle cx="130" cy="100" r="5" transform="rotate(0,130,100)"/><circle cx="130" cy="110" r="5" transform="rotate(0,130,110)"/><circle cx="130" cy="130" r="5" transform="rotate(0,130,130)"/><circle cx="130" cy="180" r="5" transform="rotate(0,130,180)"/><circle cx="130" cy="200" r="5" transform="rotate(0,130,200)"/><circle cx="130" cy="210" r="5" transform="rotate(0,130,210)"/><circle cx="130" cy="220" r="5" transform="rotate(0,130,220)"/><circle cx="130" cy="240" r="5" transform="rotate(0,130,240)"/><circle cx="130" cy="270" r="5" transform="rotate(0,130,270)"/><circle cx="130" cy="280" r="5" transform="rotate(0,130,280)"/><circle cx="130" cy="290" r="5" transform="rotate(0,130,290)"/><circle cx="140" cy="10" r="5" transform="rotate(0,140,10)"/><circle cx="140" cy="20" r="5" transform="rotate(0,140,20)"/><circle cx="140" cy="50" r="5" transform="rotate(0,140,50)"/><circle cx="140" cy="60" r="5" transform="rotate(0,140,60)"/><circle cx="140" cy="80" r="5" transform="rotate(0,140,80)"/><circle cx="140" cy="90" r="5" transform="rotate(0,140,90)"/><circle cx="140" cy="120" r="5" transform="rotate(0,140,120)"/><circle cx="140" cy="130" r="5" transform="rotate(0,140,130)"/><circle cx="140" cy="150" r="5" transform="rotate(0,140,150)"/><circle cx="140" cy="160" r="5" transform="rotate(0,140,160)"/><circle cx="140" cy="170" r="5" transform="rotate(0,140,170)"/><circle cx="140" cy="180" r="5" transform="rotate(0,140,180)"/><circle cx="140" cy="200" r="5" transform="rotate(0,140,200)"/><circle cx="140" cy="230" r="5" transform="rotate(0,140,230)"/><circle cx="140" cy="240" r="5" transform="rotate(0,140,240)"/><circle cx="140" cy="260" r="5" transform="rotate(0,140,260)"/><circle cx="140" cy="270" r="5" transform="rotate(0,140,270)"/><circle cx="140" cy="290" r="5" transform="rotate(0,140,290)"/><circle cx="150" cy="20" r="5" transform="rotate(0,150,20)"/><circle cx="150" cy="50" r="5" transform="rotate(0,150,50)"/><circle cx="150" cy="60" r="5" transform="rotate(0,150,60)"/><circle cx="150" cy="70" r="5" transform="rotate(0,150,70)"/><circle cx="150" cy="80" r="5" transform="rotate(0,150,80)"/><circle cx="150" cy="120" r="5" transform="rotate(0,150,120)"/><circle cx="150" cy="150" r="5" transform="rotate(0,150,150)"/><circle cx="150" cy="160" r="5" transform="rotate(0,150,160)"/><circle cx="150" cy="170" r="5" transform="rotate(0,150,170)"/><circle cx="150" cy="200" r="5" transform="rotate(0,150,200)"/><circle cx="150" cy="210" r="5" transform="rotate(0,150,210)"/><circle cx="150" cy="220" r="5" transform="rotate(0,150,220)"/><circle cx="150" cy="240" r="5" transform="rotate(0,150,240)"/><circle cx="150" cy="250" r="5" transform="rotate(0,150,250)"/><circle cx="150" cy="260" r="5" transform="rotate(0,150,260)"/><circle cx="150" cy="280" r="5" transform="rotate(0,150,280)"/><circle cx="150" cy="290" r="5" transform="rotate(0,150,290)"/><circle cx="160" cy="10" r="5" transform="rotate(0,160,10)"/><circle cx="160" cy="20" r="5" transform="rotate(0,160,20)"/><circle cx="160" cy="40" r="5" transform="rotate(0,160,40)"/><circle cx="160" cy="100" r="5" transform="rotate(0,160,100)"/><circle cx="160" cy="110" r="5" transform="rotate(0,160,110)"/><circle cx="160" cy="150" r="5" transform="rotate(0,160,150)"/><circle cx="160" cy="160" r="5" transform="rotate(0,160,160)"/><circle cx="160" cy="170" r="5" transform="rotate(0,160,170)"/><circle cx="160" cy="200" r="5" transform="rotate(0,160,200)"/><circle cx="160" cy="210" r="5" transform="rotate(0,160,210)"/><circle cx="160" cy="250" r="5" transform="rotate(0,160,250)"/><circle cx="160" cy="260" r="5" transform="rotate(0,160,260)"/><circle cx="170" cy="10" r="5" transform="rotate(0,170,10)"/><circle cx="170" cy="20" r="5" transform="rotate(0,170,20)"/><circle cx="170" cy="30" r="5" transform="rotate(0,170,30)"/><circle cx="170" cy="60" r="5" transform="rotate(0,170,60)"/><circle cx="170" cy="70" r="5" transform="rotate(0,170,70)"/><circle cx="170" cy="80" r="5" transform="rotate(0,170,80)"/><circle cx="170" cy="110" r="5" transform="rotate(0,170,110)"/><circle cx="170" cy="130" r="5" transform="rotate(0,170,130)"/><circle cx="170" cy="140" r="5" transform="rotate(0,170,140)"/><circle cx="170" cy="150" r="5" transform="rotate(0,170,150)"/><circle cx="170" cy="160" r="5" transform="rotate(0,170,160)"/><circle cx="170" cy="180" r="5" transform="rotate(0,170,180)"/><circle cx="170" cy="240" r="5" transform="rotate(0,170,240)"/><circle cx="170" cy="250" r="5" transform="rotate(0,170,250)"/><circle cx="170" cy="260" r="5" transform="rotate(0,170,260)"/><circle cx="180" cy="20" r="5" transform="rotate(0,180,20)"/><circle cx="180" cy="30" r="5" transform="rotate(0,180,30)"/><circle cx="180" cy="40" r="5" transform="rotate(0,180,40)"/><circle cx="180" cy="50" r="5" transform="rotate(0,180,50)"/><circle cx="180" cy="80" r="5" transform="rotate(0,180,80)"/><circle cx="180" cy="90" r="5" transform="rotate(0,180,90)"/><circle cx="180" cy="100" r="5" transform="rotate(0,180,100)"/><circle cx="180" cy="130" r="5" transform="rotate(0,180,130)"/><circle cx="180" cy="140" r="5" transform="rotate(0,180,140)"/><circle cx="180" cy="180" r="5" transform="rotate(0,180,180)"/><circle cx="180" cy="190" r="5" transform="rotate(0,180,190)"/><circle cx="180" cy="200" r="5" transform="rotate(0,180,200)"/><circle cx="180" cy="230" r="5" transform="rotate(0,180,230)"/><circle cx="180" cy="240" r="5" transform="rotate(0,180,240)"/><circle cx="180" cy="260" r="5" transform="rotate(0,180,260)"/><circle cx="190" cy="10" r="5" transform="rotate(0,190,10)"/><circle cx="190" cy="40" r="5" transform="rotate(0,190,40)"/><circle cx="190" cy="50" r="5" transform="rotate(0,190,50)"/><circle cx="190" cy="70" r="5" transform="rotate(0,190,70)"/><circle cx="190" cy="100" r="5" transform="rotate(0,190,100)"/><circle cx="190" cy="120" r="5" transform="rotate(0,190,120)"/><circle cx="190" cy="140" r="5" transform="rotate(0,190,140)"/><circle cx="190" cy="150" r="5" transform="rotate(0,190,150)"/><circle cx="190" cy="180" r="5" transform="rotate(0,190,180)"/><circle cx="190" cy="210" r="5" transform="rotate(0,190,210)"/><circle cx="190" cy="230" r="5" transform="rotate(0,190,230)"/><circle cx="190" cy="240" r="5" transform="rotate(0,190,240)"/><circle cx="190" cy="260" r="5" transform="rotate(0,190,260)"/><circle cx="190" cy="270" r="5" transform="rotate(0,190,270)"/><circle cx="200" cy="40" r="5" transform="rotate(0,200,40)"/><circle cx="200" cy="60" r="5" transform="rotate(0,200,60)"/><circle cx="200" cy="80" r="5" transform="rotate(0,200,80)"/><circle cx="200" cy="110" r="5" transform="rotate(0,200,110)"/><circle cx="200" cy="120" r="5" transform="rotate(0,200,120)"/><circle cx="200" cy="160" r="5" transform="rotate(0,200,160)"/><circle cx="200" cy="170" r="5" transform="rotate(0,200,170)"/><circle cx="200" cy="180" r="5" transform="rotate(0,200,180)"/><circle cx="200" cy="210" r="5" transform="rotate(0,200,210)"/><circle cx="200" cy="220" r="5" transform="rotate(0,200,220)"/><circle cx="200" cy="230" r="5" transform="rotate(0,200,230)"/><circle cx="200" cy="240" r="5" transform="rotate(0,200,240)"/><circle cx="200" cy="270" r="5" transform="rotate(0,200,270)"/><circle cx="200" cy="280" r="5" transform="rotate(0,200,280)"/><circle cx="200" cy="290" r="5" transform="rotate(0,200,290)"/><circle cx="210" cy="20" r="5" transform="rotate(0,210,20)"/><circle cx="210" cy="30" r="5" transform="rotate(0,210,30)"/><circle cx="210" cy="40" r="5" transform="rotate(0,210,40)"/><circle cx="210" cy="50" r="5" transform="rotate(0,210,50)"/><circle cx="210" cy="70" r="5" transform="rotate(0,210,70)"/><circle cx="210" cy="80" r="5" transform="rotate(0,210,80)"/><circle cx="210" cy="110" r="5" transform="rotate(0,210,110)"/><circle cx="210" cy="120" r="5" transform="rotate(0,210,120)"/><circle cx="210" cy="130" r="5" transform="rotate(0,210,130)"/><circle cx="210" cy="140" r="5" transform="rotate(0,210,140)"/><circle cx="210" cy="160" r="5" transform="rotate(0,210,160)"/><circle cx="210" cy="180" r="5" transform="rotate(0,210,180)"/><circle cx="210" cy="190" r="5" transform="rotate(0,210,190)"/><circle cx="210" cy="200" r="5" transform="rotate(0,210,200)"/><circle cx="210" cy="210" r="5" transform="rotate(0,210,210)"/><circle cx="210" cy="220" r="5" transform="rotate(0,210,220)"/><circle cx="210" cy="230" r="5" transform="rotate(0,210,230)"/><circle cx="210" cy="240" r="5" transform="rotate(0,210,240)"/><circle cx="210" cy="250" r="5" transform="rotate(0,210,250)"/><circle cx="210" cy="260" r="5" transform="rotate(0,210,260)"/><circle cx="210" cy="270" r="5" transform="rotate(0,210,270)"/><circle cx="210" cy="280" r="5" transform="rotate(0,210,280)"/><circle cx="210" cy="290" r="5" transform="rotate(0,210,290)"/><circle cx="220" cy="90" r="5" transform="rotate(0,220,90)"/><circle cx="220" cy="110" r="5" transform="rotate(0,220,110)"/><circle cx="220" cy="120" r="5" transform="rotate(0,220,120)"/><circle cx="220" cy="130" r="5" transform="rotate(0,220,130)"/><circle cx="220" cy="150" r="5" transform="rotate(0,220,150)"/><circle cx="220" cy="170" r="5" transform="rotate(0,220,170)"/><circle cx="220" cy="180" r="5" transform="rotate(0,220,180)"/><circle cx="220" cy="190" r="5" transform="rotate(0,220,190)"/><circle cx="220" cy="200" r="5" transform="rotate(0,220,200)"/><circle cx="220" cy="210" r="5" transform="rotate(0,220,210)"/><circle cx="220" cy="250" r="5" transform="rotate(0,220,250)"/><circle cx="220" cy="260" r="5" transform="rotate(0,220,260)"/><circle cx="220" cy="280" r="5" transform="rotate(0,220,280)"/><circle cx="220" cy="290" r="5" transform="rotate(0,220,290)"/><circle cx="230" cy="110" r="5" transform="rotate(0,230,110)"/><circle cx="230" cy="130" r="5" transform="rotate(0,230,130)"/><circle cx="230" cy="140" r="5" transform="rotate(0,230,140)"/><circle cx="230" cy="150" r="5" transform="rotate(0,230,150)"/><circle cx="230" cy="190" r="5" transform="rotate(0,230,190)"/><circle cx="230" cy="200" r="5" transform="rotate(0,230,200)"/><circle cx="230" cy="210" r="5" transform="rotate(0,230,210)"/><circle cx="230" cy="230" r="5" transform="rotate(0,230,230)"/><circle cx="230" cy="250" r="5" transform="rotate(0,230,250)"/><circle cx="230" cy="270" r="5" transform="rotate(0,230,270)"/><circle cx="230" cy="280" r="5" transform="rotate(0,230,280)"/><circle cx="240" cy="90" r="5" transform="rotate(0,240,90)"/><circle cx="240" cy="120" r="5" transform="rotate(0,240,120)"/><circle cx="240" cy="140" r="5" transform="rotate(0,240,140)"/><circle cx="240" cy="180" r="5" transform="rotate(0,240,180)"/><circle cx="240" cy="210" r="5" transform="rotate(0,240,210)"/><circle cx="240" cy="250" r="5" transform="rotate(0,240,250)"/><circle cx="250" cy="160" r="5" transform="rotate(0,250,160)"/><circle cx="250" cy="170" r="5" transform="rotate(0,250,170)"/><circle cx="250" cy="210" r="5" transform="rotate(0,250,210)"/><circle cx="250" cy="220" r="5" transform="rotate(0,250,220)"/><circle cx="250" cy="230" r="5" transform="rotate(0,250,230)"/><circle cx="250" cy="240" r="5" transform="rotate(0,250,240)"/><circle cx="250" cy="250" r="5" transform="rotate(0,250,250)"/><circle cx="250" cy="260" r="5" transform="rotate(0,250,260)"/><circle cx="250" cy="270" r="5" transform="rotate(0,250,270)"/><circle cx="250" cy="280" r="5" transform="rotate(0,250,280)"/><circle cx="250" cy="290" r="5" transform="rotate(0,250,290)"/><circle cx="260" cy="90" r="5" transform="rotate(0,260,90)"/><circle cx="260" cy="110" r="5" transform="rotate(0,260,110)"/><circle cx="260" cy="120" r="5" transform="rotate(0,260,120)"/><circle cx="260" cy="130" r="5" transform="rotate(0,260,130)"/><circle cx="260" cy="140" r="5" transform="rotate(0,260,140)"/><circle cx="260" cy="150" r="5" transform="rotate(0,260,150)"/><circle cx="260" cy="200" r="5" transform="rotate(0,260,200)"/><circle cx="260" cy="250" r="5" transform="rotate(0,260,250)"/><circle cx="260" cy="260" r="5" transform="rotate(0,260,260)"/><circle cx="260" cy="280" r="5" transform="rotate(0,260,280)"/><circle cx="270" cy="90" r="5" transform="rotate(0,270,90)"/><circle cx="270" cy="100" r="5" transform="rotate(0,270,100)"/><circle cx="270" cy="110" r="5" transform="rotate(0,270,110)"/><circle cx="270" cy="120" r="5" transform="rotate(0,270,120)"/><circle cx="270" cy="140" r="5" transform="rotate(0,270,140)"/><circle cx="270" cy="150" r="5" transform="rotate(0,270,150)"/><circle cx="270" cy="210" r="5" transform="rotate(0,270,210)"/><circle cx="270" cy="240" r="5" transform="rotate(0,270,240)"/><circle cx="270" cy="260" r="5" transform="rotate(0,270,260)"/><circle cx="270" cy="270" r="5" transform="rotate(0,270,270)"/><circle cx="270" cy="290" r="5" transform="rotate(0,270,290)"/><circle cx="280" cy="90" r="5" transform="rotate(0,280,90)"/><circle cx="280" cy="110" r="5" transform="rotate(0,280,110)"/><circle cx="280" cy="140" r="5" transform="rotate(0,280,140)"/><circle cx="280" cy="150" r="5" transform="rotate(0,280,150)"/><circle cx="280" cy="160" r="5" transform="rotate(0,280,160)"/><circle cx="280" cy="230" r="5" transform="rotate(0,280,230)"/><circle cx="280" cy="250" r="5" transform="rotate(0,280,250)"/><circle cx="280" cy="260" r="5" transform="rotate(0,280,260)"/><circle cx="280" cy="280" r="5" transform="rotate(0,280,280)"/><circle cx="290" cy="100" r="5" transform="rotate(0,290,100)"/><circle cx="290" cy="120" r="5" transform="rotate(0,290,120)"/><circle cx="290" cy="170" r="5" transform="rotate(0,290,170)"/><circle cx="290" cy="190" r="5" transform="rotate(0,290,190)"/><circle cx="290" cy="200" r="5" transform="rotate(0,290,200)"/><circle cx="290" cy="230" r="5" transform="rotate(0,290,230)"/><circle cx="290" cy="240" r="5" transform="rotate(0,290,240)"/><circle cx="290" cy="280" r="5" transform="rotate(0,290,280)"/><path clip-rule="evenodd" d="M 5 30v 20a 25 25, 0, 0, 0, 25 25h 20a 25 25, 0, 0, 0, 25 -25v -20a 25 25, 0, 0, 0, -25 -25h -20a 25 25, 0, 0, 0, -25 25M 30 15h 20a 15 15, 0, 0, 1, 15 15v 20a 15 15, 0, 0, 1, -15 15h -20a 15 15, 0, 0, 1, -15 -15v -20a 15 15, 0, 0, 1, 15 -15" transform="rotate(0,40,40)"/><circle cx="30" cy="30" r="5" transform="rotate(0,30,30)"/><circle cx="30" cy="40" r="5" transform="rotate(0,30,40)"/><circle cx="30" cy="50" r="5" transform="rotate(0,30,50)"/><circle cx="40" cy="30" r="5" transform="rotate(0,40,30)"/><circle cx="40" cy="40" r="5" transform="rotate(0,40,40)"/><circle cx="40" cy="50" r="5" transform="rotate(0,40,50)"/><circle cx="50" cy="30" r="5" transform="rotate(0,50,30)"/><circle cx="50" cy="40" r="5" transform="rotate(0,50,40)"/><circle cx="50" cy="50" r="5" transform="rotate(0,50,50)"/><path clip-rule="evenodd" d="M 225 30v 20a 25 25, 0, 0, 0, 25 25h 20a 25 25, 0, 0, 0, 25 -25v -20a 25 25, 0, 0, 0, -25 -25h -20a 25 25, 0, 0, 0, -25 25M 250 15h 20a 15 15, 0, 0, 1, 15 15v 20a 15 15, 0, 0, 1, -15 15h -20a 15 15, 0, 0, 1, -15 -15v -20a 15 15, 0, 0, 1, 15 -15" transform="rotate(90,260,40)"/><circle cx="250" cy="30" r="5" transform="rotate(0,250,30)"/><circle cx="250" cy="40" r="5" transform="rotate(0,250,40)"/><circle cx="250" cy="50" r="5" transform="rotate(0,250,50)"/><circle cx="260" cy="30" r="5" transform="rotate(0,260,30)"/><circle cx="260" cy="40" r="5" transform="rotate(0,260,40)"/><circle cx="260" cy="50" r="5" transform="rotate(0,260,50)"/><circle cx="270" cy="30" r="5" transform="rotate(0,270,30)"/><circle cx="270" cy="40" r="5" transform="rotate(0,270,40)"/><circle cx="270" cy="50" r="5" transform="rotate(0,270,50)"/><path clip-rule="evenodd" d="M 5 250v 20a 25 25, 0, 0, 0, 25 25h 20a 25 25, 0, 0, 0, 25 -25v -20a 25 25, 0, 0, 0, -25 -25h -20a 25 25, 0, 0, 0, -25 25M 30 235h 20a 15 15, 0, 0, 1, 15 15v 20a 15 15, 0, 0, 1, -15 15h -20a 15 15, 0, 0, 1, -15 -15v -20a 15 15, 0, 0, 1, 15 -15" transform="rotate(-90,40,260)"/><circle cx="30" cy="250" r="5" transform="rotate(0,30,250)"/><circle cx="30" cy="260" r="5" transform="rotate(0,30,260)"/><circle cx="30" cy="270" r="5" transform="rotate(0,30,270)"/><circle cx="40" cy="250" r="5" transform="rotate(0,40,250)"/><circle cx="40" cy="260" r="5" transform="rotate(0,40,260)"/><circle cx="40" cy="270" r="5" transform="rotate(0,40,270)"/><circle cx="50" cy="250" r="5" transform="rotate(0,50,250)"/><circle cx="50" cy="260" r="5" transform="rotate(0,50,260)"/><circle cx="50" cy="270" r="5" transform="rotate(0,50,270)"/></clipPath></defs><rect x="0" y="0" height="300" width="300" clip-path="url('#clip-path-background-color')" fill="#fff"/><rect x="0" y="0" height="300" width="300" clip-path="url('#clip-path-dot-color')" fill="#d64232"/></svg>